<svg id="Calque_1" height="1em" width="1em" fill="currentColor" xmlns="http://www.w3.org/2000/svg" viewBox="0 0 24 24"><path d="M18.9551,5.67186c-.00586-.01098-.01554-.01945-.02721-.02379-1.29566-.5942-2.66292-1.01808-4.06761-1.26102-.02588-.00474-.0519.00758-.06462.03059-.18631.33796-.35544.68509-.50675,1.04009-1.51498-.22981-3.05598-.22981-4.57096,0-.15192-.35587-.32336-.70309-.51355-1.04009-.01342-.02226-.03888-.03432-.06462-.03059-1.40714.24185-2.77679.66575-4.07441,1.26102-.01138.00482-.02092.01316-.02721.02379-2.59157,3.87143-3.30238,7.6443-2.95548,11.37298.00199.01898.01186.03624.02721.04759,1.50959,1.11592,3.19781,1.96757,4.99269,2.51864.02645.00818.05517-.00139.07142-.02379.38511-.52396.72636-1.07873,1.0203-1.6587.0157-.03203.00246-.07071-.02959-.08641-.00145-.00071-.00292-.00136-.00442-.00196-.53922-.2065-1.06121-.45541-1.56106-.74438-.03044-.01862-.04001-.05838-.02137-.0888.00387-.00632.0088-.01192.01457-.01657.10543-.07818.21086-.15975.30949-.24133.01776-.01558.04292-.01955.06462-.0102,3.27177,1.49215,6.81563,1.49215,10.04999,0,.02107-.01029.04616-.00765.06462.0068.09863.08158.20406.16655.30949.24473.02779.02238.03217.06303.00978.09081-.00465.00577-.01026.01069-.01658.01456-.49856.29047-1.02077.53834-1.56106.74098-.03313.01326-.04924.05084-.03597.08396.0006.0015.00125.00297.00196.00442.29907.57708.64009,1.13147,1.0203,1.6587.01625.0224.04497.03197.07142.02379,1.80006-.5486,3.49316-1.40039,5.00629-2.51864.01569-.01104.02566-.02847.02721-.04759.41492-4.3065-.70061-8.04878-2.95888-11.36958ZM8.68404,14.77432c-.98629,0-1.79573-.90413-1.79573-2.01219s.79584-2.01559,1.79573-2.01559c1.0101,0,1.81274.91093,1.79573,2.01219,0,1.11146-.79584,2.01559-1.79573,2.01559ZM15.32962,14.77432c-.98629,0-1.79573-.90413-1.79573-2.01219s.79244-2.01559,1.79573-2.01559c1.0101,0,1.81274.91093,1.79573,2.01219,0,1.11146-.78903,2.01559-1.79573,2.01559Z"/></svg>