<svg id="Calque_1" height="1em" width="1em" fill="currentColor" xmlns="http://www.w3.org/2000/svg" viewBox="0 0 24 24"><path d="M8.68974,17.95107c0,.08064-.09274.14515-.20966.14515-.13306.0121-.22579-.05242-.22579-.14515,0-.08064.09274-.14515.20966-.14515.12096-.0121.22579.05242.22579.14515ZM7.43579,17.76963c-.02822.08064.05242.17338.17338.19757.10483.04032.22579,0,.24998-.08064s-.05242-.17338-.17338-.20966c-.10483-.02822-.22176.0121-.24998.09274h0ZM9.21793,17.70108c-.11693.02822-.19757.10483-.18547.19757.0121.08064.11693.13306.23789.10483.11693-.02822.19757-.10483.18547-.18547-.0121-.07661-.12096-.12902-.23789-.11693ZM11.87098,2.2505C6.27861,2.2505,2.00066,6.49618,2.00066,12.08855c0,4.47148,2.81433,8.29783,6.83422,9.64452.51609.09274.69753-.22579.69753-.48787,0-.24998-.0121-1.62892-.0121-2.47564,0,0-2.82239.6048-3.4151-1.20153,0,0-.45965-1.17331-1.12089-1.47571,0,0-.92333-.63302.06451-.62093,0,0,1.00397.08064,1.55635,1.04025.88301,1.55635,2.36275,1.1088,2.93932.84269.09274-.64512.35482-1.09267.64512-1.35878-2.25388-.24998-4.52792-.57657-4.52792-4.45535,0-1.1088.30643-1.66521.95155-2.37484-.10483-.26208-.44755-1.34265.10483-2.73772.84269-.26208,2.78207,1.08864,2.78207,1.08864.8064-.22579,1.67328-.34272,2.53209-.34272s1.72569.11693,2.53209.34272c0,0,1.93939-1.35475,2.78207-1.08864.55238,1.3991.20966,2.47564.10483,2.73772.64512.71366,1.04025,1.27008,1.04025,2.37484,0,3.89087-2.37484,4.20133-4.62872,4.45535.37094.31853.68544.92333.68544,1.87084,0,1.35878-.0121,3.04012-.0121,3.37074,0,.26208.18547.58061.69753.48787,4.03199-1.33862,6.76568-5.16498,6.76568-9.63646,0-5.59237-4.53599-9.83806-10.12836-9.83806ZM5.91976,16.15683c-.05242.04032-.04032.13306.02822.20966.06451.06451.15725.09274.20966.04032.05242-.04032.04032-.13306-.02822-.20966-.06451-.06451-.15725-.09274-.20966-.04032ZM5.4843,15.83024c-.02822.05242.0121.11693.09274.15725.06451.04032.14515.02822.17338-.02822.02822-.05242-.0121-.11693-.09274-.15725-.08064-.02419-.14515-.0121-.17338.02822ZM6.79067,17.26563c-.06451.05242-.04032.17338.05242.24998.09274.09274.20966.10483.26208.04032.05242-.05242.02822-.17338-.05242-.24998-.0887-.09274-.20966-.10483-.26208-.04032ZM6.33102,16.67293c-.06451.04032-.06451.14515,0,.23789s.17338.13306.22579.09274c.06451-.05242.06451-.15725,0-.24998-.05645-.09274-.16128-.13306-.22579-.08064h0Z"/></svg>