<svg id="Calque_1" height="1em" width="1em" fill="currentColor" xmlns="http://www.w3.org/2000/svg" viewBox="0 0 24 24"><path d="M21.99934,4.85762c0-1.57579-1.28117-2.85695-2.85695-2.85695H4.85762c-1.57579,0-2.85695,1.28116-2.85695,2.85695v14.28476c0,1.57579,1.28116,2.85695,2.85695,2.85695h14.28476c1.57579,0,2.85695-1.28117,2.85695-2.85695V4.85762ZM13.86595,18.77187c0-.08035,0-.26784.00446-.51782.00446-.50889.00446-1.28563.00446-1.95076,0-.69638-.23213-1.13832-.50443-1.37045,1.65168-.18302,3.39263-.41069,3.39263-3.26318,0-.81245-.29016-1.21867-.76334-1.74096.07589-.19195.33033-.98208-.07589-2.00879-.62049-.19195-2.04004.79905-2.04004.79905-.58925-.16517-1.2276-.24998-1.85702-.24998s-1.26777.08482-1.85702.24998c0,0-1.41955-.99101-2.04004-.79905-.40622,1.02225-.15624,1.81238-.07589,2.00879-.47318.52229-.69638.92851-.69638,1.74096,0,2.8391,1.66507,3.08015,3.31674,3.26318-.21427.19195-.40622.52229-.47318.99547-.42408.19195-1.50883.52229-2.15611-.62049-.40622-.70531-1.13832-.76334-1.13832-.76334-.72317-.00893-.0491.45533-.0491.45533.48211.2232.82137,1.08029.82137,1.08029.43301,1.32581,2.5043.87941,2.5043.87941,0,.40176.00446.96869.00446,1.36598,0,.21427.00446.3839.00446.4464,0,.19195-.13392.42408-.51336.35712-2.94623-.98654-5.0086-3.78993-5.0086-7.0665,0-4.09794,3.13372-7.20934,7.23166-7.20934s7.41915,3.1114,7.41915,7.20934c.00446,3.27657-1.9954,6.08442-4.94164,7.0665-.37497.06696-.51336-.16517-.51336-.35712ZM9.82604,16.32561c-.00893-.06696.0491-.12499.13392-.14285.08482-.00893.16517.02678.1741.08482.01339.05803-.04464.11606-.13392.13392-.08482.01786-.16517-.01786-.1741-.07589h0ZM9.41981,16.46845c-.09821.00893-.16517-.04018-.16517-.10714,0-.05803.06696-.10714.15624-.10714.08482-.00893.16517.04018.16517.10714,0,.05803-.06696.10714-.15624.10714ZM8.78146,16.37025c-.08482-.01786-.14285-.08482-.12499-.14285s.10714-.08482.18302-.06696c.08928.02678.14731.09374.12499.15178-.01786.05803-.10714.08482-.18302.05803h0ZM8.22346,16.04438c-.06696-.05803-.08482-.14285-.04018-.18302.04018-.0491.12499-.04018.19195.02678.05803.05803.08035.14731.04018.18302-.04018.0491-.12499.04018-.19195-.02678ZM7.84403,15.59798c-.0491-.06696-.0491-.14285,0-.1741.0491-.04018.12499-.00893.16517.05803.0491.06696.0491.14731,0,.18302-.04018.02678-.11606,0-.16517-.06696ZM7.56279,15.20515c-.0491-.05803-.05803-.12499-.01786-.15624.04018-.04018.10714-.01786.15624.02678.0491.05803.05803.12499.01786.15624-.04018.04018-.10714.01786-.15624-.02678ZM7.29495,14.91945c-.05803-.02678-.08482-.07589-.06696-.11606.01786-.02678.06696-.04018.12499-.01786.05803.03125.08482.08035.06696.11606-.01786.04018-.07589.0491-.12499.01786Z"/></svg>