<svg id="Calque_1" height="1em" width="1em" fill="currentColor" xmlns="http://www.w3.org/2000/svg" viewBox="0 0 24 24"><path d="M21.99934,12c0,5.52383-4.48357,9.99934-10.01546,9.99934-4.5884,0-8.45105-3.07641-9.63646-7.27371l3.83845,1.58457c.25805,1.29427,1.40716,2.27404,2.77804,2.27404,1.58054,0,2.899-1.30636,2.83046-2.96351l3.40703-2.42726c2.10067.05242,3.86265-1.64908,3.86265-3.76991,0-2.08051-1.69344-3.76991-3.77798-3.76991s-3.77797,1.69344-3.77797,3.76991v.04838l-2.38694,3.45542c-.62496-.03629-1.23782.13709-1.75392.48787l-5.36658-2.21759C2.41193,6.04878,6.72213,2.00066,11.98387,2.00066c5.53189,0,10.01546,4.47551,10.01546,9.99934ZM8.27847,17.17304l-1.22976-.50803c.22601.46923.61619.83933,1.0967,1.04025,1.08461.45158,2.33049-.06451,2.78207-1.14508.21773-.52416.22176-1.10073.00403-1.62489s-.62496-.93542-1.14912-1.15315c-.52013-.21773-1.07654-.20966-1.56844-.02419l1.27008.52416c.79833.33062,1.17734,1.24588.84269,2.04422-.33466.80237-1.24992,1.17734-2.04825.84672ZM15.28607,11.93549c-1.387,0-2.51596-1.12896-2.51596-2.51193s1.12896-2.51193,2.51596-2.51193,2.51596,1.12896,2.51596,2.51193-1.12492,2.51193-2.51596,2.51193ZM15.2901,11.3065c1.04429,0,1.891-.84672,1.891-1.88697,0-1.04429-.84672-1.88697-1.891-1.88697s-1.891.84672-1.891,1.88697c.00403,1.04025.85075,1.88697,1.891,1.88697Z"/></svg>