<svg id="Calque_1" height="1em" width="1em" fill="currentColor" xmlns="http://www.w3.org/2000/svg" viewBox="0 0 24 24"><path d="M19.65574,8.49354c0,1.50883-1.2276,2.72303-2.72303,2.72303-1.50883,0-2.72303-1.21867-2.72303-2.72303s1.21867-2.72303,2.72303-2.72303c1.49544,0,2.72303,1.2142,2.72303,2.72303ZM21.99934,8.50247c0,2.81231-2.27663,5.08002-5.07556,5.08002l-4.87914,3.56226c-.17856,1.91952-1.80792,3.42834-3.77207,3.42834-1.80792,0-3.3346-1.28563-3.70511-2.99087l-2.56679-1.03118v-4.78986l4.339,1.75435c.67406-.41069,1.4374-.59371,2.32127-.51336l3.16943-4.53988c.02232-2.78107,2.29895-5.03538,5.08895-5.03538,2.80338,0,5.08002,2.27663,5.08002,5.07556ZM11.06256,16.77424c0-1.549-1.24099-2.78999-2.78999-2.78999-.20088,0-.40176.02232-.60264.06696l1.16064.46872c1.13832.45533,1.69632,1.74096,1.23652,2.87927-.45533,1.13832-1.74988,1.69632-2.8882,1.2276-.45533-.17856-.91512-.37051-1.37044-.54461.46872.87941,1.39276,1.48204,2.46412,1.48204,1.549,0,2.78999-1.24099,2.78999-2.78999ZM20.32534,8.50247c0-1.87488-1.53115-3.40156-3.40156-3.40156-1.88827,0-3.41495,1.52668-3.41495,3.40156,0,1.8838,1.53115,3.40156,3.41495,3.40156,1.87041.00446,3.40156-1.51329,3.40156-3.40156Z"/></svg>