<svg id="Calque_1" height="1em" width="1em" fill="currentColor" xmlns="http://www.w3.org/2000/svg" viewBox="0 0 24 24"><path d="M12,2.00066C6.47617,2.00066,2.00066,6.47617,2.00066,12s4.47551,9.99934,9.99934,9.99934,9.99934-4.47551,9.99934-9.99934S17.52383,2.00066,12,2.00066ZM16.63679,8.80263c-.14918,1.58054-.80237,5.41899-1.13299,7.18904-.14112.74995-.41529.99993-.68141,1.02413-.58061.05242-1.02009-.38304-1.58457-.75398-.87897-.57657-1.37894-.93542-2.22969-1.4999-.98784-.64915-.34675-1.008.2137-1.59264.14918-.15322,2.70547-2.47967,2.75385-2.68934.00806-.02822.0121-.12499-.04838-.17741s-.14515-.03226-.20563-.02016c-.0887.01882-1.49452.94752-4.21746,2.7861-.39782.27417-.75936.40723-1.08461.39917-.35885-.00806-1.04429-.2016-1.55635-.36691-.62496-.2016-1.12493-.31046-1.08057-.65721.0215-.1801.27014-.36422.74592-.55238,2.91378-1.26873,4.8572-2.10604,5.83026-2.51193,2.77804-1.15315,3.35461-1.35475,3.72959-1.36281.08467,0,.26611.02016.38707.11693.07895.06941.12925.1657.14112.27014.0218.13186.02857.26578.02016.39917Z"/></svg>