<svg id="Calque_1" height="1em" width="1em" fill="currentColor" xmlns="http://www.w3.org/2000/svg" viewBox="0 0 24 24"><path d="M19.94479,7.928c.01172.17577.01172.35545.01172.53121,0,5.41761-4.12473,11.66329-11.66329,11.66329-2.32406,0-4.48017-.67183-6.29255-1.83972.3281.03906.64839.05078.98822.05078,1.91784,0,3.67944-.64839,5.08951-1.74988-1.80066-.03906-3.31228-1.21867-3.83178-2.84356.25389.03906.50778.0625.77339.0625.36716,0,.73433-.05078,1.07805-.14062-1.87878-.37888-3.28494-2.03111-3.28494-4.02317v-.05078c.54684.30467,1.17961.49606,1.85144.5195-1.1054-.73433-1.828-1.99206-1.828-3.41384,0-.76167.20311-1.46084.55856-2.07017,2.0194,2.48812,5.05045,4.11301,8.45256,4.28878-.0625-.30467-.10156-.62105-.10156-.93744,0-2.25766,1.828-4.09738,4.09738-4.09738,1.17961,0,2.24594.49606,2.9959,1.29288.92572-.17577,1.81629-.5195,2.60139-.98822-.30467.95306-.95306,1.74988-1.80066,2.25766.82416-.08984,1.62489-.31639,2.35922-.63277-.55856.81245-1.25773,1.53505-2.05455,2.12095h0Z"/></svg>