<svg id="Calque_1" height="1em" width="1em" fill="currentColor" xmlns="http://www.w3.org/2000/svg" viewBox="0 0 24 24"><path d="M3.40682,3.40682c-1.40616,1.40616-1.40616,3.6694-1.40616,8.19142v.80352c0,4.52202,0,6.78526,1.40616,8.19142s3.6694,1.40616,8.19142,1.40616h.80352c4.52202,0,6.78526,0,8.19142-1.40616s1.40616-3.6694,1.40616-8.19142v-.80352c0-4.52202,0-6.78526-1.40616-8.19142s-3.6694-1.40616-8.19142-1.40616h-.80352c-4.52202,0-6.78526,0-8.19142,1.40616ZM5.37544,8.08508h2.2811c.07589,3.81671,1.75881,5.43267,3.09354,5.76301v-5.76301h2.15164v3.28996c1.31688-.14285,2.69625-1.64275,3.16497-3.28996h2.15164c-.17856.85262-.52675,1.66507-1.03118,2.37931-.50443.71424-1.14725,1.31688-1.8972,1.76774.83477.41515,1.57132.99993,2.16057,1.7231.59371.7187,1.02225,1.55347,1.26777,2.45073h-2.37038c-.21427-.77674-.66067-1.47758-1.27224-2.00433-.61603-.53121-1.37044-.86601-2.17396-.96868v2.97302h-.25891c-4.55773,0-7.16024-3.12479-7.26737-8.32088Z"/></svg>